#!OML:ASF X:\für Bonn\!DataBase\2005_08_10_Bjorn_Final\c3d\bjorn.ASF
:FULLY-SPECIFIED
:DEGREES
535
root -0.324084 1.60415 11.9778 -2076.46 -7.89658 192.562
lowerback 7.7755 2.68336 -7.48025
upperback 9.10186 2.30461 -6.07057
thorax 5.1366 0.349539 -2.32958
lowerneck 5.27693 -3.88781 -4.41136
upperneck -2.5292 -5.4028 3.89227
head -1.46766 -2.75549 2.13982
rclavicle 6.36111e-015 9.54166e-014
rhumerus 12.5638 29.0938 -51.8343
rradius 81.3276
rwrist -16.3719
rhand -16.5633 11.7207
rfingers 7.12502
rthumb 9.65669 -18.038
lclavicle 6.36111e-015 9.54166e-014
lhumerus 48.622 -61.5047 16.508
lradius 98.8337
lwrist -6.63002
lhand -46.5806 -26.2953
lfingers 7.12502
lthumb -19.304 722.767
rfemur -364.393 -16.2096 368.631
rtibia 24.4563
rfoot 13.5371 9.96028
rtoes -9.10125
lfemur -24.4437 6.29242 -15.1449
ltibia 65.7934
lfoot 25.6074 5.45011
ltoes -11.0077
536
root -0.323688 1.6031 11.9799 -2076.44 -7.89522 192.348
lowerback 7.68234 2.58491 -7.49003
upperback 8.85226 2.20195 -6.06457
thorax 4.91923 0.326882 -2.30442
lowerneck 5.05971 -3.96822 -4.15433
upperneck -3.14399 -5.48345 3.8527
head -1.63088 -2.7954 2.09154
rclavicle -5.08889e-014 9.22361e-014
rhumerus 12.5644 29.4137 -51.2529
rradius 83.1237
rwrist -16.7163
rhand -16.6411 11.8124
rfingers 7.12502
rthumb 9.58165 -17.9497
lclavicle -5.08889e-014 9.22361e-014
lhumerus 48.082 -61.6414 15.6882
lradius 100.209
lwrist -6.92644
lhand -46.1841 -26.1301
lfingers 7.12502
lthumb -18.9228 722.969
rfemur -364.387 -16.291 368.553
rtibia 24.45
rfoot 13.1926 9.84829
rtoes -8.95439
lfemur -24.4097 6.38602 -15.1341
ltibia 65.7864
lfoot 25.5338 5.41323
ltoes -11.1942
537
root -0.323178 1.60218 11.9822 -2076.41 -7.88389 192.113
lowerback 7.57652 2.49587 -7.4921
upperback 8.61722 2.11251 -6.05159
thorax 4.72523 0.308963 -2.27711
lowerneck 4.77234 -4.03982 -3.85473
upperneck -3.63825 -5.55414 3.78626
head -1.74535 -2.83218 2.02189
rclavicle -9.85972e-014 1.09729e-013
rhumerus 12.6057 29.7219 -50.6754
rradius 84.8226
rwrist -16.9478
rhand -16.7421 12.007
rfingers 7.12502
rthumb 9.48419 -17.7596
lclavicle -9.85972e-014 1.09729e-013
lhumerus 47.5122 -61.7497 14.9568
lradius 101.516
lwrist -7.38027
lhand -45.6517 -25.6734
lfingers 7.12502
lthumb -18.4107 723.475
rfemur -364.382 -16.3944 368.48
rtibia 24.4401
rfoot 12.944 9.7424
rtoes -8.60158
lfemur -24.3689 6.48544 -15.1061
ltibia 65.7761
lfoot 25.4434 5.42662
ltoes -11.0998
538
root -0.322205 1.60098 11.9845 -2076.38 -7.88919 191.888
lowerback 7.47388 2.39592 -7.50342
upperback 8.39266 2.00712 -6.04558
thorax 4.5418 0.281493 -2.25212
lowerneck 4.32968 -4.08558 -3.59383
upperneck -3.91925 -5.59256 3.78069
head -1.7621 -2.85517 1.96756
rclavicle -3.49861e-014 -7.95139e-015
rhumerus 12.6464 30.0424 -50.1104
rradius 86.4689
rwrist -17.0465
rhand -17.003 12.3355
rfingers 7.12502
rthumb 9.2324 -17.4424
lclavicle -3.49861e-014 -7.95139e-015
lhumerus 47.0052 -61.871 14.1591
lradius 102.734
lwrist -7.5033
lhand -45.1468 -25.4523
lfingers 7.12502
lthumb -17.9249 723.742
rfemur -364.369 -16.5349 368.387
rtibia 24.4274
rfoot 12.6854 9.66477
rtoes -8.78352
lfemur -24.3312 6.59632 -15.0994
ltibia 65.7637
lfoot 25.374 5.37741
ltoes -11.2767
539
root -0.320144 1.60048 11.9868 -2076.35 -7.88726 191.669
lowerback 7.36028 2.29999 -7.52289
upperback 8.19342 1.90835 -6.018
thorax 4.39121 0.254173 -2.20076
lowerneck 3.68847 -4.12808 -3.38252
upperneck -3.95864 -5.62907 3.76804
head -1.66435 -2.87538 1.90662
rclavicle -5.725e-014 -2.14687e-014
rhumerus 12.7095 30.3457 -49.5138
rradius 88.0141
rwrist -17.0659
rhand -17.3638 12.8826
rfingers 7.12502
rthumb 8.88434 -16.9103
lclavicle -5.725e-014 -2.14687e-014
lhumerus 46.4654 -62.0488 13.3825
lradius 103.911
lwrist -7.26942
lhand -44.8713 -25.4487
lfingers 7.12502
lthumb -17.6598 723.769
rfemur -364.346 -16.6274 368.313
rtibia 24.4084
rfoot 12.4288 9.52685
rtoes -8.70776
lfemur -24.2919 6.69338 -15.0758
ltibia 65.7462
lfoot 25.2833 5.38308
ltoes -11.3129
540
root -0.316504 1.60003 11.99 -2076.33 -7.88895 191.432
lowerback 7.24615 2.21199 -7.55091
upperback 8.00638 1.81853 -5.98544
thorax 4.25411 0.229087 -2.14042
lowerneck 2.90974 -4.16672 -3.19728
upperneck -3.78193 -5.66286 3.75886
head -1.47312 -2.89261 1.84152
rclavicle -7.15625e-014 1.33981e-013
rhumerus 12.7685 30.6717 -48.8935
rradius 89.4916
rwrist -17.02
rhand -17.9051 13.4724
rfingers 7.12502
rthumb 8.36191 -16.3421
lclavicle -7.15625e-014 1.33981e-013
lhumerus 45.652 -62.2395 12.8789
lradius 105.031
lwrist -7.09631
lhand -44.6974 -25.4188
lfingers 7.12502
lthumb -17.4924 723.814
rfemur -364.327 -16.6944 368.243
rtibia 24.3971
rfoot 12.1701 9.36881
rtoes -8.79288
lfemur -24.2437 6.80842 -15.0481
ltibia 65.7263
lfoot 25.1952 5.37807
ltoes -11.4852
541
root -0.312027 1.59947 11.9919 -2076.3 -7.88986 191.211
lowerback 7.11377 2.11232 -7.58385
upperback 7.8441 1.7162 -5.94788
thorax 4.1543 0.195492 -2.07213
lowerneck 1.95197 -4.18178 -3.012
upperneck -3.40237 -5.66588 3.71789
head -1.19039 -2.89115 1.75613
rclavicle -9.54166e-015 7.95139e-016
rhumerus 12.8409 30.9701 -48.298
rradius 90.8658
rwrist -16.8436
rhand -18.5641 14.1499
rfingers 7.12502
rthumb 7.72593 -15.689
lclavicle -9.54166e-015 7.95139e-016
lhumerus 44.704 -62.3886 12.5338
lradius 106.109
lwrist -6.91584
lhand -44.6265 -25.1815
lfingers 7.12502
lthumb -17.4242 724.058
rfemur -364.314 -16.7748 368.181
rtibia 24.3828
rfoot 11.9321 9.21231
rtoes -8.93927
lfemur -24.2055 6.92954 -15.0212
ltibia 65.7016
lfoot 25.1256 5.29384
ltoes -11.7879
542
root -0.305693 1.59917 11.9933 -2076.27 -7.88554 190.996
lowerback 7.00997 2.01599 -7.62854
upperback 7.67039 1.61351 -5.90076
thorax 4.02636 0.162054 -1.98777
lowerneck 0.984166 -4.18737 -2.83086
upperneck -2.91981 -5.66022 3.66637
head -0.878034 -2.88349 1.66763
rclavicle 5.88403e-014 7.15625e-015
rhumerus 12.8234 31.2863 -47.7422
rradius 92.2393
rwrist -16.6259
rhand -19.3429 14.7711
rfingers 7.12502
rthumb 6.97413 -15.094
lclavicle 5.88403e-014 7.15625e-015
lhumerus 43.6183 -62.5777 12.3564
lradius 107.148
lwrist -6.71796
lhand -44.5677 -24.7952
lfingers 7.12502
lthumb -17.3677 724.449
rfemur -364.293 -16.8244 368.129
rtibia 24.3717
rfoot 11.7327 9.0316
rtoes -9.13158
lfemur -24.1598 7.0253 -14.9764
ltibia 65.6779
lfoot 25.0219 5.31069
ltoes -11.8723
543
root -0.298152 1.59907 11.9951 -2076.25 -7.88226 190.79
lowerback 6.88749 1.92752 -7.67864
upperback 7.53243 1.52302 -5.84469
thorax 3.94705 0.130753 -1.89232
lowerneck -0.0881755 -4.19161 -2.70228
upperneck -2.33709 -5.65562 3.63847
head -0.519038 -2.87393 1.59362
rclavicle -3.33958e-014 2.70347e-014
rhumerus 12.7677 31.5575 -47.2262
rradius 93.6117
rwrist -16.3407
rhand -20.1978 15.2953
rfingers 7.12502
rthumb 6.14886 -14.5955
lclavicle -3.33958e-014 2.70347e-014
lhumerus 42.4312 -62.6859 12.3471
lradius 108.12
lwrist -6.45375
lhand -44.4193 -24.4491
lfingers 7.12502
lthumb -17.2248 724.807
rfemur -364.27 -16.8371 368.088
rtibia 24.3671
rfoot 11.5273 8.84152
rtoes -9.53773
lfemur -24.1187 7.12927 -14.9259
ltibia 65.6499
lfoot 24.9621 5.32636
ltoes -11.7797
544
root -0.28984 1.59936 11.9974 -2076.22 -7.87744 190.593
lowerback 6.75363 1.81745 -7.76584
upperback 7.3906 1.40796 -5.74518
thorax 3.86948 0.0870089 -1.72975
lowerneck -1.14277 -4.18029 -2.6625
upperneck -1.75011 -5.63009 3.58625
head -0.164282 -2.85106 1.53167
rclavicle -5.24792e-014 -2.90226e-014
rhumerus 12.6631 31.8765 -46.7095
rradius 95.0367
rwrist -16.0273
rhand -20.687 15.5269
rfingers 7.12502
rthumb 5.67654 -14.3771
lclavicle -5.24792e-014 -2.90226e-014
lhumerus 40.8729 -62.7909 12.793
lradius 109.032
lwrist -6.13501
lhand -44.2726 -24.2493
lfingers 7.12502
lthumb -17.0836 725.02
rfemur -364.256 -16.8309 368.058
rtibia 24.3612
rfoot 11.3419 8.66456
rtoes -9.91916
lfemur -24.0896 7.22463 -14.877
ltibia 65.6206
lfoot 24.8895 5.33439
ltoes -11.8096
545
root -0.280327 1.59955 11.9976 -2076.19 -7.88512 190.394
lowerback 6.61884 1.69953 -7.89055
upperback 7.26582 1.28178 -5.63058
thorax 3.81121 0.0346218 -1.53113
lowerneck -2.23202 -4.15725 -2.6483
upperneck -1.12381 -5.58783 3.53284
head 0.2074 -2.81859 1.47702
rclavicle -8.90555e-014 5.12864e-014
rhumerus 12.469 32.1524 -46.3099
rradius 96.4948
rwrist -15.5751
rhand -21.0682 15.6914
rfingers 7.12502
rthumb 5.30851 -14.2221
lclavicle -8.90555e-014 5.12864e-014
lhumerus 39.1041 -62.8716 13.5041
lradius 109.859
lwrist -5.91459
lhand -44.2792 -23.9954
lfingers 7.12502
lthumb -17.0899 725.273
rfemur -364.24 -16.7889 368.023
rtibia 24.3581
rfoot 11.1761 8.48768
rtoes -10.3121
lfemur -24.0507 7.32744 -14.8341
ltibia 65.5908
lfoot 24.8037 5.3409
ltoes -11.9504
546
root -0.270467 1.59999 11.9996 -2076.17 -7.88056 190.212
lowerback 6.49348 1.58406 -8.00474
upperback 7.14424 1.15847 -5.50181
thorax 3.75213 -0.0159474 -1.3242
lowerneck -3.22353 -4.13785 -2.69621
upperneck -0.579578 -5.54975 3.52939
head 0.542637 -2.78907 1.45624
rclavicle 5.56597e-014 -5.4467e-014
rhumerus 12.1377 32.4051 -45.9928
rradius 97.9578
rwrist -14.8936
rhand -21.2761 15.7203
rfingers 7.12502
rthumb 5.10773 -14.1981
lclavicle 5.56597e-014 -5.4467e-014
lhumerus 37.266 -62.9692 14.3458
lradius 110.628
lwrist -5.76247
lhand -44.2647 -23.581
lfingers 7.12502
lthumb -17.076 725.689
rfemur -364.213 -16.789 367.995
rtibia 24.3553
rfoot 11.0838 8.36299
rtoes -10.3713
lfemur -24.0111 7.40169 -14.7824
ltibia 65.5594
lfoot 24.7199 5.32109
ltoes -11.9969
547
root -0.258842 1.60038 11.9999 -2076.15 -7.87463 190.039
lowerback 6.37128 1.4903 -8.1058
upperback 7.03308 1.06098 -5.39049
thorax 3.70306 -0.0550428 -1.14457
lowerneck -4.16127 -4.13164 -2.69099
upperneck -0.116378 -5.53369 3.54543
head 0.846375 -2.77203 1.43678
rclavicle -7.95139e-015 -1.47101e-014
rhumerus 11.5914 32.6042 -45.8091
rradius 99.4407
rwrist -13.983
rhand -21.7143 15.6814
rfingers 7.12502
rthumb 4.68463 -14.2468
lclavicle -7.95139e-015 -1.47101e-014
lhumerus 35.5403 -63.0764 15.1266
lradius 111.341
lwrist -5.62288
lhand -44.1229 -23.1542
lfingers 7.12502
lthumb -16.9395 726.127
rfemur -364.183 -16.7479 367.984
rtibia 24.3528
rfoot 10.9697 8.24771
rtoes -10.5159
lfemur -23.9714 7.48451 -14.7101
ltibia 65.5306
lfoot 24.659 5.38808
ltoes -11.7832
548
root -0.246917 1.59986 12.0008 -2076.12 -7.8741 189.864
lowerback 6.24598 1.38885 -8.21671
upperback 6.92807 0.95372 -5.27529
thorax 3.66357 -0.0998563 -0.955655
lowerneck -5.06452 -4.11795 -2.67248
upperneck 0.313711 -5.50772 3.53325
head 1.13552 -2.75013 1.40907
rclavicle 8.74653e-014 -2.70347e-014
rhumerus 10.9945 32.8359 -45.6596
rradius 100.934
rwrist -12.8103
rhand -22.359 15.5248
rfingers 7.12502
rthumb 4.06215 -14.4162
lclavicle 8.74653e-014 -2.70347e-014
lhumerus 33.6561 -63.1764 16.0776
lradius 112.02
lwrist -5.49922
lhand -43.9166 -22.7
lfingers 7.12502
lthumb -16.7409 726.598
rfemur -364.167 -16.7143 367.97
rtibia 24.3493
rfoot 10.9372 8.18482
rtoes -10.4516
lfemur -23.9481 7.57173 -14.6509
ltibia 65.4991
lfoot 24.598 5.38339
ltoes -11.7536
549
root -0.23358 1.59989 12.0007 -2076.11 -7.88724 189.69
lowerback 6.14226 1.31877 -8.30933
upperback 6.83473 0.881226 -5.19424
thorax 3.62432 -0.128999 -0.81461
lowerneck -5.98593 -4.12935 -2.6139
upperneck 0.777108 -5.5224 3.5567
head 1.4436 -2.74809 1.38504
rclavicle 1.59028e-015 1.43125e-014
rhumerus 10.2058 33.1344 -45.6133
rradius 102.457
rwrist -11.93
rhand -23.3648 15.5729
rfingers 7.12502
rthumb 3.0908 -14.3845
lclavicle 1.59028e-015 1.43125e-014
lhumerus 31.9325 -63.3047 16.8505
lradius 112.698
lwrist -5.3705
lhand -43.747 -22.2799
lfingers 7.12502
lthumb -16.5776 727.032
rfemur -364.127 -16.5911 367.954
rtibia 24.3484
rfoot 10.903 8.03583
rtoes -10.1487
lfemur -23.9043 7.65898 -14.5924
ltibia 65.4659
lfoot 24.5371 5.41095
ltoes -11.66
